<svg version="1.1" xmlns="http://www.w3.org/2000/svg" xmlns:xlink="http://www.w3.org/1999/xlink" 
     viewBox="0 0 143 143" preserveAspectRatio="xMidYMid meet">
  
  <!-- Centered and scaled group to fill square -->
  <g transform="translate(-4, 20) scale(1.03,1.05)">
    <path fill="currentColor" opacity="1.000000" stroke="none" 
      d="
    M43.333332,104.000000 
      C38.419918,92.092163 33.909626,80.156906 29.244389,68.282524 
      C20.990171,47.273144 12.641699,26.300797 4.077860,4.669312 
      C6.040874,5.146732 7.782789,5.329009 9.322600,5.985395 
      C17.266218,9.371580 25.237844,12.713631 33.012562,16.459492 
      C34.988747,17.411619 36.945370,19.508770 37.783119,21.544050 
      C44.293907,37.361752 50.606762,53.263050 56.744728,69.229256 
      C57.472034,71.121140 57.386181,73.801720 56.634834,75.705246 
      C52.977146,84.971924 48.964840,94.098618 45.039028,103.637436 
      C44.555553,104.000000 44.111111,104.000000 43.333332,104.000000 
    z"/>
    <path fill="currentColor" opacity="1.000000" stroke="none" 
      d="
    M102.333328,104.000000 
      C98.118164,94.654579 94.095947,85.363144 90.464767,75.921326 
      C89.672981,73.862541 89.573013,70.995384 90.353432,68.960327 
      C96.417305,53.147636 102.677299,37.407166 109.154823,21.759521 
      C110.050804,19.595116 112.141937,17.385517 114.246635,16.358351 
      C121.850555,12.647367 129.678024,9.388921 137.467667,6.068862 
      C138.933365,5.444162 140.612671,5.320643 142.596710,4.982925 
      C143.000000,5.750000 143.000000,6.500000 142.679901,7.361969 
      C141.601608,8.918930 140.706650,10.309426 140.105820,11.817141 
      C131.810181,32.634083 123.510635,53.449707 115.309227,74.303871 
      C111.432816,84.160629 107.763275,94.098747 104.000000,104.000000 
      C103.555557,104.000000 103.111107,104.000000 102.333328,104.000000 
    z"/>
    <path fill="currentColor" opacity="1.000000" stroke="none" 
      d="
    M66.723557,47.353920 
      C64.175911,40.903736 61.770489,34.812214 59.365067,28.720690 
      C59.536236,28.346306 59.707405,27.971922 59.878574,27.597538 
      C69.079666,34.287186 78.227036,35.070248 87.297401,27.387838 
      C87.553658,27.782579 87.809914,28.177320 88.066177,28.572062 
      C83.451820,40.271618 78.837471,51.971176 73.714165,64.961174 
      C71.129990,58.452576 68.997887,53.082577 66.723557,47.353920 
    z"/>
  </g>
</svg>